<mxfile host="Electron" modified="2023-08-03T06:51:20.109Z" agent="Mozilla/5.0 (X11; Linux x86_64) AppleWebKit/537.36 (KHTML, like Gecko) draw.io/21.2.1 Chrome/112.0.5615.87 Electron/24.1.2 Safari/537.36" etag="W9gYkQY3HPOO9wQ2cgOy" version="21.2.1" type="device">
  <diagram name="Page-1" id="Vn31Phi38d548Jd6JGEV">
    <mxGraphModel dx="545" dy="374" grid="1" gridSize="10" guides="1" tooltips="1" connect="1" arrows="1" fold="1" page="1" pageScale="1" pageWidth="850" pageHeight="1100" math="0" shadow="0">
      <root>
        <mxCell id="0" />
        <mxCell id="1" parent="0" />
        <mxCell id="wKc4VNqz5GmEd-VunCF0-27" value="" style="rounded=1;whiteSpace=wrap;html=1;fillColor=#fff2cc;strokeColor=#d6b656;" parent="1" vertex="1">
          <mxGeometry x="260" y="60" width="200" height="220" as="geometry" />
        </mxCell>
        <mxCell id="AyhjZf4ut2BHP1ZbR9yH-2" value="&lt;font style=&quot;font-size: 12px;&quot;&gt;④ Layer Inferance&lt;/font&gt;" style="rounded=0;whiteSpace=wrap;html=1;align=left;strokeColor=#FF3333;" parent="1" vertex="1">
          <mxGeometry x="275" y="130" width="160" height="30" as="geometry" />
        </mxCell>
        <mxCell id="wKc4VNqz5GmEd-VunCF0-26" value="" style="rounded=1;whiteSpace=wrap;html=1;fillColor=#dae8fc;strokeColor=#6c8ebf;" parent="1" vertex="1">
          <mxGeometry x="60" y="40" width="190" height="270" as="geometry" />
        </mxCell>
        <mxCell id="wKc4VNqz5GmEd-VunCF0-28" value="&lt;font style=&quot;font-size: 20px;&quot;&gt;Master Node&lt;/font&gt;" style="text;html=1;strokeColor=none;fillColor=none;align=center;verticalAlign=middle;whiteSpace=wrap;rounded=0;" parent="1" vertex="1">
          <mxGeometry x="92.5" y="10" width="125" height="30" as="geometry" />
        </mxCell>
        <mxCell id="wKc4VNqz5GmEd-VunCF0-29" value="&lt;font style=&quot;font-size: 20px;&quot;&gt;Server Nodes&lt;/font&gt;" style="text;html=1;strokeColor=none;fillColor=none;align=center;verticalAlign=middle;whiteSpace=wrap;rounded=0;" parent="1" vertex="1">
          <mxGeometry x="292.5" y="30" width="125" height="30" as="geometry" />
        </mxCell>
        <mxCell id="wKc4VNqz5GmEd-VunCF0-30" style="edgeStyle=orthogonalEdgeStyle;rounded=0;orthogonalLoop=1;jettySize=auto;html=1;entryX=0.5;entryY=0;entryDx=0;entryDy=0;" parent="1" source="wKc4VNqz5GmEd-VunCF0-31" edge="1">
          <mxGeometry relative="1" as="geometry">
            <mxPoint x="155" y="110" as="targetPoint" />
          </mxGeometry>
        </mxCell>
        <mxCell id="wKc4VNqz5GmEd-VunCF0-31" value="&lt;font style=&quot;font-size: 12px;&quot;&gt;① Load dataset&lt;/font&gt;" style="rounded=0;whiteSpace=wrap;html=1;align=left;" parent="1" vertex="1">
          <mxGeometry x="75" y="60" width="160" height="30" as="geometry" />
        </mxCell>
        <mxCell id="wKc4VNqz5GmEd-VunCF0-34" style="edgeStyle=orthogonalEdgeStyle;rounded=0;orthogonalLoop=1;jettySize=auto;html=1;entryX=0;entryY=0.5;entryDx=0;entryDy=0;" parent="1" source="wKc4VNqz5GmEd-VunCF0-35" target="wKc4VNqz5GmEd-VunCF0-39" edge="1">
          <mxGeometry relative="1" as="geometry" />
        </mxCell>
        <mxCell id="wKc4VNqz5GmEd-VunCF0-35" value="&lt;font style=&quot;font-size: 12px;&quot;&gt;&amp;nbsp;②&amp;nbsp;Publish data&lt;/font&gt;" style="rounded=0;whiteSpace=wrap;html=1;align=left;" parent="1" vertex="1">
          <mxGeometry x="75" y="110" width="160" height="30" as="geometry" />
        </mxCell>
        <mxCell id="wKc4VNqz5GmEd-VunCF0-36" style="edgeStyle=orthogonalEdgeStyle;rounded=0;orthogonalLoop=1;jettySize=auto;html=1;" parent="1" source="wKc4VNqz5GmEd-VunCF0-37" target="wKc4VNqz5GmEd-VunCF0-47" edge="1">
          <mxGeometry relative="1" as="geometry" />
        </mxCell>
        <mxCell id="wKc4VNqz5GmEd-VunCF0-37" value="&lt;font style=&quot;font-size: 12px;&quot;&gt;⑧&amp;nbsp;Gather necessary data&lt;/font&gt;" style="rounded=0;whiteSpace=wrap;html=1;align=left;" parent="1" vertex="1">
          <mxGeometry x="75" y="210" width="160" height="30" as="geometry" />
        </mxCell>
        <mxCell id="wKc4VNqz5GmEd-VunCF0-38" style="edgeStyle=orthogonalEdgeStyle;rounded=0;orthogonalLoop=1;jettySize=auto;html=1;entryX=0.5;entryY=0;entryDx=0;entryDy=0;" parent="1" source="wKc4VNqz5GmEd-VunCF0-39" edge="1">
          <mxGeometry relative="1" as="geometry">
            <mxPoint x="355" y="129.99999999999994" as="targetPoint" />
          </mxGeometry>
        </mxCell>
        <mxCell id="wKc4VNqz5GmEd-VunCF0-39" value="&lt;font style=&quot;font-size: 12px;&quot;&gt;③ Wait data from privious layer&lt;/font&gt;" style="rounded=0;whiteSpace=wrap;html=1;align=left;" parent="1" vertex="1">
          <mxGeometry x="275" y="80" width="160" height="30" as="geometry" />
        </mxCell>
        <mxCell id="wKc4VNqz5GmEd-VunCF0-40" style="edgeStyle=orthogonalEdgeStyle;rounded=0;orthogonalLoop=1;jettySize=auto;html=1;entryX=1;entryY=0.5;entryDx=0;entryDy=0;" parent="1" source="wKc4VNqz5GmEd-VunCF0-42" target="wKc4VNqz5GmEd-VunCF0-39" edge="1">
          <mxGeometry relative="1" as="geometry">
            <Array as="points">
              <mxPoint x="450" y="245" />
              <mxPoint x="450" y="95" />
            </Array>
          </mxGeometry>
        </mxCell>
        <mxCell id="wKc4VNqz5GmEd-VunCF0-41" style="edgeStyle=orthogonalEdgeStyle;rounded=0;orthogonalLoop=1;jettySize=auto;html=1;entryX=1;entryY=0.5;entryDx=0;entryDy=0;" parent="1" source="wKc4VNqz5GmEd-VunCF0-42" target="wKc4VNqz5GmEd-VunCF0-49" edge="1">
          <mxGeometry relative="1" as="geometry" />
        </mxCell>
        <mxCell id="wKc4VNqz5GmEd-VunCF0-42" value="&lt;font style=&quot;font-size: 12px;&quot;&gt;⑥ Next layer: go to ③&lt;br&gt;&lt;/font&gt;" style="rounded=0;whiteSpace=wrap;html=1;align=left;" parent="1" vertex="1">
          <mxGeometry x="275" y="230" width="160" height="30" as="geometry" />
        </mxCell>
        <mxCell id="wKc4VNqz5GmEd-VunCF0-43" style="edgeStyle=orthogonalEdgeStyle;rounded=0;orthogonalLoop=1;jettySize=auto;html=1;entryX=0.5;entryY=0;entryDx=0;entryDy=0;" parent="1" target="wKc4VNqz5GmEd-VunCF0-46" edge="1">
          <mxGeometry relative="1" as="geometry">
            <mxPoint x="355" y="160" as="sourcePoint" />
          </mxGeometry>
        </mxCell>
        <mxCell id="wKc4VNqz5GmEd-VunCF0-45" style="edgeStyle=orthogonalEdgeStyle;rounded=0;orthogonalLoop=1;jettySize=auto;html=1;entryX=0.5;entryY=0;entryDx=0;entryDy=0;" parent="1" source="wKc4VNqz5GmEd-VunCF0-46" target="wKc4VNqz5GmEd-VunCF0-42" edge="1">
          <mxGeometry relative="1" as="geometry" />
        </mxCell>
        <mxCell id="wKc4VNqz5GmEd-VunCF0-46" value="&lt;font style=&quot;font-size: 12px;&quot;&gt;⑤ Publish infered result data&lt;/font&gt;" style="rounded=0;whiteSpace=wrap;html=1;align=left;" parent="1" vertex="1">
          <mxGeometry x="275" y="180" width="160" height="30" as="geometry" />
        </mxCell>
        <mxCell id="wKc4VNqz5GmEd-VunCF0-47" value="&lt;font style=&quot;font-size: 12px;&quot;&gt;⑨ Other processes&lt;/font&gt;" style="rounded=0;whiteSpace=wrap;html=1;align=left;" parent="1" vertex="1">
          <mxGeometry x="75" y="260" width="160" height="30" as="geometry" />
        </mxCell>
        <mxCell id="wKc4VNqz5GmEd-VunCF0-48" style="edgeStyle=orthogonalEdgeStyle;rounded=0;orthogonalLoop=1;jettySize=auto;html=1;entryX=0.5;entryY=0;entryDx=0;entryDy=0;" parent="1" source="wKc4VNqz5GmEd-VunCF0-49" target="wKc4VNqz5GmEd-VunCF0-37" edge="1">
          <mxGeometry relative="1" as="geometry" />
        </mxCell>
        <mxCell id="wKc4VNqz5GmEd-VunCF0-49" value="&lt;font style=&quot;font-size: 12px;&quot;&gt;⑦ Subscribe necessary publisher topic&lt;/font&gt;" style="rounded=0;whiteSpace=wrap;html=1;align=left;" parent="1" vertex="1">
          <mxGeometry x="75" y="160" width="160" height="30" as="geometry" />
        </mxCell>
      </root>
    </mxGraphModel>
  </diagram>
</mxfile>
